# xmcd
#
# Track frame offsets: 
#        150
#        35747
#        65864
#        106326
#        140430
#        154515
#        177734
#
# Disc length: 4044 seconds
#
# Revision: 1
# Processed by: cddbd v1.5.2PL0 Copyright (c) Steve Scherf et al.
# Submitted via: ExactAudioCopy v0.95b4
#
DISCID=650fca07
DTITLE=Miles Davis - Nefertiti
DYEAR=1967
DGENRE=Jazz
TTITLE0=Nefertiti
TTITLE1=Fall
TTITLE2=Hand Jive
TTITLE3=Madness
TTITLE4=Riot
TTITLE5=Pinocchio
TTITLE6=Ife
EXTD=YEAR: 1967
EXTT0=
EXTT1=
EXTT2=
EXTT3=
EXTT4=
EXTT5=
EXTT6=
PLAYORDER=
